<svg xmlns="http://www.w3.org/2000/svg" width="102" height="30" viewBox="0 0 102 30">
    <path fill="#009925" fill-rule="evenodd" d="M10.537 25.119c-2.902 0-5.249-2.58-5.249-5.754 0-3.254 2.347-5.873 5.25-5.873 2.902 0 5.249 2.5 5.249 5.873 0 3.254-2.347 5.754-5.25 5.754m57.124-1.271h5.78a10.214 10.214 0 0 1-9.177 5.724c-5.64 0-10.213-4.571-10.213-10.21 0-5.64 4.573-10.211 10.213-10.211 5.64 0 10.213 4.571 10.213 10.21 0 .634-.057 1.255-.168 1.857H59.257a5.033 5.033 0 0 0 8.404 2.63zm-8.33-6.652h9.712a5.034 5.034 0 0 0-9.713 0zM11.252 8.65c5.407 0 9.782 4.802 9.782 10.674C21.035 25.238 16.7 30 10.537 30 4.334 30 0 25.238 0 19.325V0h5.288v11.031c1.551-1.626 3.58-2.38 5.965-2.38zm42.295.444l-7.638 7.983 8.075 12.47h-6.683l-5.092-8.617-2.625 2.74v5.878h-5.252V0h5.252v16.522l6.722-7.427h7.24zm24.397 8.946c0-5.65 4.022-9.596 10.832-8.784v4.799c-3.345-.581-5.576 1.16-5.576 3.985v11.531h-5.256V18.041zm13.223 0c0-5.65 4.022-9.596 10.832-8.784v4.799c-3.345-.581-5.576 1.16-5.576 3.985v11.531h-5.256V18.041zM24.706 29.572V9.151h5.261v20.421h-5.261zM27.336 0a2.628 2.628 0 0 1 2.63 2.625 2.628 2.628 0 0 1-2.63 2.624 2.628 2.628 0 0 1-2.63-2.624A2.628 2.628 0 0 1 27.336 0z"/>
</svg>
