<svg xmlns="http://www.w3.org/2000/svg" xmlns:xlink="http://www.w3.org/1999/xlink" width="170" height="170" viewBox="0 0 170 170">
    <defs>
        <path id="a" d="M0 0h100v100H0z"/>
    </defs>
    <g fill="none" fill-rule="evenodd">
        <circle cx="85" cy="85" r="85" fill="#009925"/>
        <g transform="translate(35 35)">
            <mask id="b" fill="#fff">
                <use xlink:href="#a"/>
            </mask>
            <path fill="#FFF" d="M18.755 74.01h.022a5.5 5.5 0 1 0 10.955 0h.023v-30a3 3 0 1 1 6 0v31h-.01c-.263 6.119-5.306 11-11.49 11s-11.228-4.881-11.49-11h-.01v-6a3 3 0 1 1 6 0v5z" mask="url(#b)" transform="rotate(45 24.255 63.51)"/>
            <path fill="#FFF" d="M70 30v-8a4 4 0 1 0-8 0v8h-8a4 4 0 1 0 0 8h8v8a4 4 0 1 0 8 0v-8h8a4 4 0 1 0 0-8h-8zm13.004-17.46l.062-.063 2.121-2.122a3 3 0 1 1 4.243 4.243l-2.121 2.121-.064.062c17.443 19.636 16.757 49.713-2.058 68.528-.266.266-.535.53-.806.789a19.916 19.916 0 0 0-4.85-7.86c-5.385-5.385-13.075-7.057-19.892-5.018a35.871 35.871 0 0 0-10.514-23.974A35.842 35.842 0 0 0 28.56 39.034c.996-6.131-.87-12.637-5.598-17.365a19.907 19.907 0 0 0-10.049-5.437 50.853 50.853 0 0 1 1.564-1.634C33.29-4.216 63.369-4.902 83.004 12.54z" mask="url(#b)"/>
        </g>
    </g>
</svg>
