<svg xmlns="http://www.w3.org/2000/svg" xmlns:xlink="http://www.w3.org/1999/xlink" width="170" height="170" viewBox="0 0 170 170">
    <defs>
        <path id="a" d="M0 0h100v100H0z"/>
    </defs>
    <g fill="none" fill-rule="evenodd">
        <circle cx="85" cy="85" r="85" fill="#FFF"/>
        <g transform="translate(35 35)">
            <mask id="b" fill="#fff">
                <use xlink:href="#a"/>
            </mask>
            <path fill="#009925" d="M10.355 52.33A30.863 30.863 0 0 0 25 56c17.12 0 31-13.88 31-31 0-1.524-.11-3.022-.322-4.486h1.807c3.367 0 6.621.454 9.724 1.306 2.213-2.858 6.13-5.964 12.902-6.797 2.233-.285 3.764 2.14 2.573 4.033-1.551 2.442-2.876 5.794-2.232 9.485 5.921 4.734 10.367 11.248 12.505 18.727h3.045c2.44 0 4.427 1.988 4.427 4.45v10.925a4.434 4.434 0 0 1-4.427 4.43h-2.875c-2.479 9.26-8.456 17.06-16.422 21.946v8.576A2.406 2.406 0 0 1 74.304 100H59.679a2.406 2.406 0 0 1-2.402-2.405v-3.18H46.91c-.397 0-.813 0-1.21-.02v3.2A2.407 2.407 0 0 1 43.296 100H28.673a2.406 2.406 0 0 1-2.403-2.405V88.11C16.45 81.463 10 70.235 10 57.474a37.3 37.3 0 0 1 .355-5.145zM77.999 48C80.22 48 82 46.22 82 44a4 4 0 1 0-4 4zM25 50C11.207 50 .021 38.793 0 25 0 11.187 11.187 0 25 0c13.814 0 25 11.187 25 25 0 13.814-11.186 25-25 25zM10.324 26.314h-.02v1.909c0 .472.39.861.862.861h2.873c.205.698.39 1.417.678 2.094 1.437 3.51 3.88 5.994 7.532 7.184 3.018.965 6.076.944 9.114.103.8-.226 1.58-.493 2.34-.841.738-.33.924-.904.636-1.602-.308-.78-.636-1.56-.985-2.32-.308-.677-.719-.881-1.457-.718-.944.206-1.868.493-2.813.699-1.827.369-3.653.41-5.459-.165-2.258-.697-3.47-2.34-4.208-4.454h6.138c.472 0 .862-.39.862-.861v-1.93a.867.867 0 0 0-.862-.863h-6.712v-1.58h6.712c.472 0 .862-.39.862-.862v-1.93a.867.867 0 0 0-.862-.861h-5.871v-.062c.718-1.6 1.744-2.874 3.428-3.551 1.97-.78 3.982-.759 5.993-.35.965.186 1.889.473 2.853.7.677.163 1.088-.041 1.396-.7a44.85 44.85 0 0 0 .985-2.277c.308-.719.123-1.21-.554-1.622-.164-.082-.349-.184-.533-.246-2.834-1.088-5.748-1.519-8.765-1.027-2.114.35-4.105 1.068-5.808 2.402-2.156 1.684-3.551 3.88-4.372 6.466l-.104.308h-3.016a.868.868 0 0 0-.863.862v1.93c0 .471.39.861.863.861h2.38v1.58h-2.38a.868.868 0 0 0-.863.863z" mask="url(#b)"/>
        </g>
    </g>
</svg>
