<svg xmlns="http://www.w3.org/2000/svg" width="170" height="170" viewBox="0 0 170 170">
    <g fill="none" fill-rule="evenodd">
        <circle cx="85" cy="85" r="85" fill="#009925"/>
        <path fill="#FFF" d="M102.678 73.66l7.175-7.175a4 4 0 0 0-5.657-5.657l-7.043 7.044A20.904 20.904 0 0 0 85 64c-4.45 0-8.575 1.384-11.971 3.744l-7.384-7.384a4 4 0 0 0-5.657 5.657l7.456 7.456A20.902 20.902 0 0 0 64 85c0 4.529 1.434 8.723 3.872 12.153l-8.044 8.043a4 4 0 0 0 5.657 5.657l8.175-8.175A20.902 20.902 0 0 0 85 106c4.257 0 8.218-1.267 11.527-3.444l7.828 7.828a4 4 0 0 0 5.657-5.656l-7.756-7.757A20.903 20.903 0 0 0 106 85c0-4.177-1.22-8.07-3.322-11.34zM60 40h50c11.046 0 20 8.954 20 20v50c0 11.046-8.954 20-20 20H60c-11.046 0-20-8.954-20-20V60c0-11.046 8.954-20 20-20zm25 59c-7.732 0-14-6.268-14-14s6.268-14 14-14 14 6.268 14 14-6.268 14-14 14zm33-18a4 4 0 1 0 0 8 4 4 0 0 0 0-8z"/>
    </g>
</svg>
