<svg xmlns="http://www.w3.org/2000/svg" width="100" height="100" viewBox="0 0 100 100">
    <path fill="#009925" fill-rule="evenodd" d="M69.642 37.4l8.286-8.286a4 4 0 0 0 0-5.657l-.628-.629a4 4 0 0 0-5.657 0l-8.14 8.14A23.227 23.227 0 0 0 50 26.667a23.226 23.226 0 0 0-13.302 4.16l-8.518-8.519a4 4 0 0 0-5.657 0l-.628.629a4 4 0 0 0 0 5.657l8.598 8.598A23.224 23.224 0 0 0 26.667 50c0 5.032 1.592 9.692 4.301 13.503l-9.25 9.25a4 4 0 0 0 0 5.658l.628.628a4 4 0 0 0 5.657 0l9.397-9.397A23.224 23.224 0 0 0 50 73.333c4.73 0 9.131-1.407 12.808-3.826l9.012 9.012a4 4 0 0 0 5.657 0l.628-.628a4 4 0 0 0 0-5.657l-8.932-8.932A23.226 23.226 0 0 0 73.333 50c0-4.641-1.355-8.966-3.69-12.6zM20 0h60c11.046 0 20 8.954 20 20v60c0 11.046-8.954 20-20 20H20C8.954 100 0 91.046 0 80V20C0 8.954 8.954 0 20 0zm30 65.556c-8.591 0-15.556-6.965-15.556-15.556S41.41 34.444 50 34.444 65.556 41.41 65.556 50 58.59 65.556 50 65.556zm36.222-20a4 4 0 0 0-4 4v.888a4 4 0 0 0 4 4h.89a4 4 0 0 0 4-4v-.888a4 4 0 0 0-4-4h-.89z"/>
</svg>
