<svg xmlns="http://www.w3.org/2000/svg" width="170" height="170" viewBox="0 0 170 170">
    <g fill="none" fill-rule="evenodd">
        <circle cx="85" cy="85" r="85" fill="#009925"/>
        <path fill="#FFF" d="M35 85c0 9.073 2.235 17.439 6.705 25.098 4.47 7.659 10.535 13.725 18.197 18.197C67.564 132.768 75.93 135.003 85 135c9.07-.003 17.436-2.238 25.098-6.705 7.662-4.467 13.727-10.533 18.197-18.197C132.765 102.433 135 94.068 135 85c0-9.067-2.235-17.433-6.705-25.098-4.47-7.664-10.535-13.73-18.197-18.197C102.436 37.238 94.07 35.003 85 35c-9.07-.003-17.436 2.232-25.098 6.705-7.662 4.472-13.727 10.538-18.197 18.197C37.235 67.561 35 75.927 35 85z"/>
        <path fill="#009925" d="M112.773 56.281c-18.401 11.63-31.66 26.342-37.045 32.873L61.91 77.98c-.385-.27-7.976 6.675-7.755 6.882l25.17 26.42a.934.934 0 0 0 .724.314c.042 0 .119 0 .18-.021a.99.99 0 0 0 .746-.642c4.058-10.696 17.455-33.096 34.55-49.346.304-.287.422-.764.242-1.157 0-.021-2.73-4.313-2.993-4.149z"/>
    </g>
</svg>
