<svg xmlns="http://www.w3.org/2000/svg" width="100" height="100" viewBox="0 0 100 100">
    <g fill="#009925" fill-rule="evenodd">
        <path d="M12.941 67.045l.016.016a5.5 5.5 0 1 0 7.746 7.746l.016.016L41.933 53.61a3 3 0 1 1 4.242 4.243l-21.92 21.92-.008-.007c-4.512 4.141-11.53 4.026-15.902-.346-4.373-4.373-4.488-11.39-.346-15.903l-.008-.007 4.243-4.243a3 3 0 1 1 4.243 4.243l-3.536 3.535z"/>
        <path d="M70 30v-8a4 4 0 1 0-8 0v8h-8a4 4 0 1 0 0 8h8v8a4 4 0 1 0 8 0v-8h8a4 4 0 1 0 0-8h-8zm13.004-17.46l.062-.063 2.121-2.122a3 3 0 1 1 4.243 4.243l-2.121 2.121-.064.062c17.443 19.636 16.757 49.713-2.058 68.528-.266.266-.535.53-.806.789a19.916 19.916 0 0 0-4.85-7.86c-5.385-5.385-13.075-7.057-19.892-5.018a35.871 35.871 0 0 0-10.514-23.974A35.842 35.842 0 0 0 28.56 39.034c.996-6.131-.87-12.637-5.598-17.365a19.907 19.907 0 0 0-10.049-5.437 50.853 50.853 0 0 1 1.564-1.634C33.29-4.216 63.369-4.902 83.004 12.54z"/>
    </g>
</svg>
