<svg xmlns="http://www.w3.org/2000/svg" width="32" height="32" viewBox="0 0 32 32">
    <path fill="#333634" fill-rule="evenodd" d="M24.921 19.186a.496.496 0 0 1-.303-.618A8.889 8.889 0 0 0 25 16c0-.894-.137-1.754-.382-2.568a.496.496 0 0 1 .303-.618l3.765-1.344a.505.505 0 0 1 .652.315C29.761 13.116 30 14.529 30 16c0 1.471-.239 2.884-.662 4.215a.506.506 0 0 1-.652.315l-3.765-1.344zM17.37 22.87a7.012 7.012 0 0 1-8.24-8.24c.522-2.756 2.744-4.978 5.5-5.5a7.011 7.011 0 0 1 8.24 8.24c-.522 2.755-2.744 4.978-5.5 5.5zM16 30c-1.411 0-2.767-.219-4.051-.609a.504.504 0 0 1-.32-.652l1.346-3.769a.496.496 0 0 1 .609-.305A8.956 8.956 0 0 0 16 25a8.95 8.95 0 0 0 2.416-.335.496.496 0 0 1 .609.305l1.346 3.769a.504.504 0 0 1-.32.652c-1.283.39-2.64.609-4.051.609zM7.08 19.186l-3.766 1.345a.505.505 0 0 1-.651-.315A13.855 13.855 0 0 1 2 16c0-1.472.239-2.885.663-4.216a.505.505 0 0 1 .651-.315l3.766 1.345c.252.09.379.36.302.617A8.93 8.93 0 0 0 7 16c0 .894.138 1.755.382 2.569a.496.496 0 0 1-.302.617zM16 2c1.472 0 2.885.239 4.217.663a.504.504 0 0 1 .314.65L19.186 7.08a.496.496 0 0 1-.617.302A8.89 8.89 0 0 0 16 7c-.894 0-1.755.137-2.569.382a.494.494 0 0 1-.616-.302l-1.346-3.767a.504.504 0 0 1 .314-.65A13.867 13.867 0 0 1 16 2zm0-2C7.163 0 0 7.164 0 16s7.163 16 16 16 16-7.164 16-16S24.837 0 16 0z"/>
</svg>
