<svg xmlns="http://www.w3.org/2000/svg" width="32" height="32" viewBox="0 0 32 32">
    <g fill="none" fill-rule="evenodd">
        <path fill="#009925" d="M0 16c0 2.903.715 5.58 2.146 8.031a15.934 15.934 0 0 0 5.823 5.823C10.42 31.286 13.098 32.001 16 32c2.902 0 5.58-.716 8.031-2.146a15.907 15.907 0 0 0 5.823-5.823C31.284 21.58 32 18.901 32 16c0-2.902-.715-5.579-2.146-8.031a15.907 15.907 0 0 0-5.823-5.823C21.58.716 18.902 0 16 0c-2.902 0-5.58.714-8.031 2.146a15.934 15.934 0 0 0-5.823 5.823C.716 10.419 0 13.097 0 16z"/>
        <path fill="#FFF" d="M24.887 6.81C19 10.531 14.757 15.24 13.033 17.33l-4.422-3.576c-.123-.087-2.553 2.136-2.482 2.202l8.054 8.454c.06.068.142.1.232.1.014 0 .038 0 .058-.006.11-.02.2-.099.239-.206 1.298-3.422 5.585-10.59 11.056-15.79a.33.33 0 0 0 .077-.37c0-.007-.874-1.38-.958-1.328z"/>
    </g>
</svg>
