<svg xmlns="http://www.w3.org/2000/svg" width="32" height="32" viewBox="0 0 32 32">
    <path fill="#CCC" fill-rule="evenodd" d="M29.877 17.777a13.819 13.819 0 0 1-.694 2.905l-.012.033c-.34.944-.773 1.844-1.294 2.684-.185.296-.61.297-.824.021C24.491 20.125 20.496 18 16 18s-8.491 2.125-11.053 5.42c-.214.276-.639.275-.824-.021a14.253 14.253 0 0 1-1.306-2.717 13.819 13.819 0 0 1-.694-2.905c-.014-.101-.025-.203-.036-.304A13.772 13.772 0 0 1 2 16C2 8.268 8.268 2 16 2s14 6.268 14 14c0 .499-.035.988-.087 1.473-.011.101-.022.203-.036.304M16 0c8.837 0 16 7.164 16 16 0 8.837-7.163 16-16 16S0 24.837 0 16C0 7.164 7.163 0 16 0zm0 4a6 6 0 0 0 0 12 6 6 0 0 0 0-12z"/>
</svg>
