<svg xmlns="http://www.w3.org/2000/svg" width="32" height="32" viewBox="0 0 32 32">
    <path fill="#CCC" fill-rule="evenodd" d="M15.947 6.947a1 1 0 1 1 0-2 1 1 0 0 1 0 2M29 0c.55 0 1 .45 1 1s-.45 1-1 1h-6.586l-3.468 3.468c.031.173.054.35.054.532a2.992 2.992 0 0 1-2 2.816V10.1c2.282.464 4 2.481 4 4.9v7h1c.55 0 1 .45 1 1s-.45 1-1 1h-2c-.55 0-1-.45-1-1v-8a3 3 0 1 0-6 0v8c0 .55-.45 1-1 1h-2c-.55 0-1-.45-1-1s.45-1 1-1h1v-7a5.003 5.003 0 0 1 4-4.9V8.816A2.992 2.992 0 0 1 13 6c0-.182.022-.359.053-.532L9.586 2H3c-.55 0-1-.45-1-1s.45-1 1-1h7c.009 0 .015.005.024.005.122.003.244.025.359.072.071.031.128.082.19.127.044.031.094.049.133.087l3.399 3.4A2.97 2.97 0 0 1 16 3c.722 0 1.377.265 1.894.691l3.4-3.4c.039-.038.089-.056.132-.087.062-.045.12-.096.191-.127.114-.047.236-.069.358-.072.009 0 .016-.005.025-.005h7zM16 13c1.1 0 2 .9 2 2v15c0 1.1-.9 2-2 2s-2-.9-2-2V15c0-1.1.9-2 2-2z"/>
</svg>
