<svg xmlns="http://www.w3.org/2000/svg" width="100" height="100" viewBox="0 0 100 100">
    <path fill="#009925" fill-rule="evenodd" d="M53 8h25.721c.577 0 .781.027 1.005.089.223.062.42.159.604.3.185.14.33.285.68.743l16.517 21.63c.922 1.207 1.16 1.718 1.317 2.326a3.594 3.594 0 0 1 0 1.824c-.157.608-.395 1.12-1.317 2.326l-16.516 21.63c-.35.458-.496.604-.68.744-.186.14-.382.237-.605.299-.224.062-.428.089-1.005.089H53v8h10.268c1.783 0 2.43.186 3.082.534.652.349 1.163.86 1.512 1.512.348.652.534 1.299.534 3.082v9.744c0 1.783-.186 2.43-.534 3.082a3.635 3.635 0 0 1-1.512 1.512c-.652.348-1.299.534-3.082.534H53v10a2 2 0 0 1-2 2h-8a2 2 0 0 1-2-2V88H30.678c-.53 0-.715-.02-.92-.07a1.746 1.746 0 0 1-.56-.242c-.175-.115-.316-.235-.68-.622l-5.19-5.524c-1.178-1.253-1.482-1.824-1.682-2.51-.2-.684-.2-1.38 0-2.065s.504-1.256 1.682-2.51l5.19-5.523c.364-.387.505-.507.68-.622.176-.115.356-.193.56-.242.205-.05.39-.07.92-.07H41v-8H12.128c-1.783 0-2.43-.186-3.082-.534a3.635 3.635 0 0 1-1.512-1.512C7.186 57.302 7 56.655 7 54.872V13.128c0-1.783.186-2.43.534-3.082a3.635 3.635 0 0 1 1.512-1.512C9.698 8.186 10.345 8 12.128 8H41V6a6 6 0 1 1 12 0v2zm34 30a4 4 0 1 0 0-8 4 4 0 0 0 0 8zM32 82a4 4 0 1 0 0-8 4 4 0 0 0 0 8z"/>
</svg>
