<svg xmlns="http://www.w3.org/2000/svg" width="52" height="52" viewBox="0 0 52 52">
    <g fill="none" fill-rule="evenodd">
        <rect width="52" height="52" fill="#007759" rx="4"/>
        <path fill="#E20714" d="M6 45h40L26.033 7z"/>
        <g fill="#FEFEFE">
            <path d="M48.691 24.046l.007 2.11v.033c-.361-.133-.77-.153-1.179-.175h-3.776l-1.956.007v2.64h5.516c.473-.041.978-.045 1.404-.198v2.429c-.438-.164-.93-.167-1.423-.202l-1.077-.017-2.146.003h-2.247v1.79c.026.52.072 1.035.181 1.52h-3.629c.247-.746.16-1.611.17-2.462V25.43c-.04-.455-.072-.961-.213-1.385H48.69zM36.172 24.046c-.134.455-.136.958-.158 1.458v7.045c.026.492.093.98.208 1.439h-3.715c.126-.442.168-.918.183-1.408v-6.8c-.073-.578-.064-1.192-.244-1.727l.003-.009 3.723.002zM25.12 26.46l-1.682 3.768h3.402l-1.72-3.769zm-1.477-1.402c.136-.33.261-.653.3-1.028H27.516c.067.416.25.766.416 1.14l4.272 8.817h-3.788c-.036-.146-.062-.305-.114-.457-.185-.594-.463-1.191-.723-1.756h-4.924c-.247.376-.374.815-.564 1.223a7.95 7.95 0 0 0-.29.99h-2.353l1.262-2.668 2.933-6.26zM18.754 26.366v6.038c.025.535.077 1.075.211 1.568h-3.613c.244-.83.166-1.67.175-2.528 0 0 .033-5.109 0-5.161l-2.87 6.05c-.22.527-.48 1.055-.569 1.639H9.763c-.11-.553-.321-1.075-.562-1.575l-2.97-6.115.012 6.412c.044.445.074.872.208 1.278H4.075c.151-.577.156-1.183.177-1.826v-5.843c-.024-.78-.008-1.572-.241-2.29H4c-.004-.015.01.006.017 0h4.62c.121.749.5 1.346.804 2.024l2.105 4.39 2.02-4.159v-.007c.343-.722.727-1.442.899-2.249-.044-.03.018.007 0 0h4.487c-.223.734-.173 1.553-.2 2.354"/>
        </g>
    </g>
</svg>
