<svg xmlns="http://www.w3.org/2000/svg" width="32" height="32" viewBox="0 0 32 32">
    <path fill="#333634" fill-rule="evenodd" d="M31.218 6.068a.511.511 0 0 1 .782.447l-.274 9.261a.51.51 0 0 1-.72.449l-8.448-3.812a.51.51 0 0 1-.06-.898l2.947-1.84c-2.02-3.22-5.59-5.368-9.673-5.368-3.92 0-7.37 1.979-9.427 4.986a.508.508 0 0 1-.687.152L3.29 7.975a.515.515 0 0 1-.162-.72C5.864 3.184 10.5.5 15.772.5c5.446 0 10.21 2.863 12.9 7.158l2.546-1.59zm-2.51 17.957a.516.516 0 0 1 .162.72C26.135 28.814 21.5 31.5 16.227 31.5c-5.446 0-10.21-2.864-12.902-7.16L.78 25.93a.51.51 0 0 1-.78-.446l.273-9.261a.51.51 0 0 1 .72-.449l8.45 3.812a.51.51 0 0 1 .058.898l-2.946 1.84c2.02 3.22 5.59 5.369 9.672 5.369 3.92 0 7.37-1.979 9.427-4.986a.506.506 0 0 1 .687-.152l2.367 1.47z"/>
</svg>
