<svg xmlns="http://www.w3.org/2000/svg" xmlns:xlink="http://www.w3.org/1999/xlink" width="1440" height="303" viewBox="0 0 1440 303">
    <defs>
        <path id="a" d="M590 0h1440v303H590z"/>
    </defs>
    <g fill="none" fill-rule="evenodd" transform="translate(-590)">
        <mask id="b" fill="#fff">
            <use xlink:href="#a"/>
        </mask>
        <use fill="#009925" xlink:href="#a"/>
        <g fill="#FFF" fill-rule="nonzero" mask="url(#b)">
            <path d="M480.525 207.314c3.232-13.859 14.72-24.558 28.651-27l.072.575c-16.516 2.872-29.082 17.234-29.082 34.539 0 19.388 15.726 35.113 35.114 35.113 14.576 0 27.07-8.904 32.384-21.542l16.875 4.74c.933.43 1.938.646 2.944.861H567.698c.503.072 1.005.144 1.508.144 4.165 0 7.827-2.226 9.91-5.53l4.092 2.011-2.37 3.878c-.43.646-.215 1.58.503 2.01.216.144.503.216.79.216.503 0 .934-.216 1.22-.718l6.248-10.053c.43-.646.215-1.58-.503-2.01-.646-.431-1.58-.216-2.01.502l-2.729 4.38-4.236-2.154c.502-1.364.861-2.8.861-4.308 0-.288 0-.575-.071-.862h2.297c.288 0 .503-.215.575-.503l1.292-8.042c.216-1.22-.215-2.37-1.005-3.231l34.036-33.031.718 2.082.646-.215 1.006 2.944c-11.202 6.821-18.67 19.1-18.67 33.103 0 6.103 1.364 11.991 4.093 17.377 0 0 1.58-2.514 1.652-4.022-.575-1.436-1.006-2.872-1.365-4.308l.575-.143c3.95 15.007 17.664 26.137 33.892 26.137 19.388 0 35.114-15.726 35.114-35.113 0-19.1-15.367-34.683-34.467-35.042v-.574h.287s1.149-2.298 1.149-3.088c-.718-.072-1.365-.072-2.083-.072-5.242 0-10.268 1.077-14.864 2.944l-5.098-16.587 1.364-.215c3.878 4.883 10.412 4.38 11.346 4.093 1.005-.288 1.651-2.944 1.651-5.673s.503-6.678.503-6.678-.43.287-5.96.574c-4.021.216-6.606 3.519-7.683 5.242l-1.867.288-1.508-4.811c-.144-.36.072-.79.359-.934l.503-.359c.359-.215.646-.574.79-1.005l1.58-4.596a1.4 1.4 0 0 0 0-1.077l.574-1.508c.43-1.077.215-2.226-.575-3.088-.718-.861-1.867-1.22-3.016-1.005l-20.464 4.596c-.575.143-.934.718-.79 1.22.143.503.718.934 1.22.79l20.465-4.595c.503-.144.79.143.934.287.143.144.359.503.143.933l-.359.862c-.215 0-.43 0-.574.072l-17.88 5.6c-.287.073-.43.36-.359.647.072.287.36.43.646.36l17.736-5.1-1.292 3.376c-.072.287-.287.43-.575.574l-5.313 1.939c-.503.215-.79.79-.646 1.364l2.37 6.75-1.796.287c-.646.072-1.077.718-1.005 1.365a1.16 1.16 0 0 0 1.149 1.005h.215l2.226-.36 1.005 2.873-1.149.36.288.933h-61.18l-.574-2.01c0-.073-.072-.073-.072-.145l2.226-.718a10.706 10.706 0 0 0 3.088-1.651l3.088-2.298c.79-.646 1.436-1.436 1.867-2.441a1.765 1.765 0 0 0-.36-1.94c-.574-.574-1.507-1.148-2.943-1.076-2.944.143-11.274 2.944-14.362 1.795-2.082-.79-5.241-2.585-7.54-2.513-1.579.072-2.512 1.795-1.794 3.231l3.446 6.534c1.436 2.729 4.596 3.95 7.468 3.016l3.447-1.149v.072l.574 1.939-3.087 3.877h-13.284l-34.252-5.385c-.43-.072-.862.215-.934.646-.071.431.216.862.647.934l7.109 1.149 1.077 7.252c-6.894 1.22-13.428 4.237-18.814 8.904a39.124 39.124 0 0 0-12.997 23.409c.072-.072 2.873-.431 3.734-2.226zm30.159-27.215c1.508-.215 3.016-.359 4.596-.359 5.098 0 9.98 1.077 14.36 3.016l-.215.503a34.46 34.46 0 0 0-14.145-3.016c-1.508 0-3.016.144-4.452.287l-.144-.43zm41.217-9.19l11.704 38.559-10.053.144c-1.436-9.55-6.319-17.952-13.427-23.912l11.776-14.792zm-5.242 38.774l-13.787.144-.646 1.364h-12.423l16.085-20.105a31.899 31.899 0 0 1 10.77 18.597zm-30.805 2.585l-.215.431-.072-.502c.072.071.215.071.287.071zm2.01 1.365c.288.359.431.861.503 1.364l-1.436-.215.934-1.15zm1.15-4.38l10.483-22.404c1.724.862 3.375 1.939 4.955 3.088l-15.438 19.316zm-2.657 1.938h-.934l-4.165-27.43c1.293-.143 2.657-.287 4.022-.287 4.523 0 8.904 1.005 12.781 2.729l-11.704 24.988zm-1.94 3.95a.996.996 0 0 0 0 .646c.145.287.432.503.719.574l3.016.431c-.503 1.077-1.58 1.867-2.872 1.867a3.218 3.218 0 0 1-3.232-3.231c0-1.293.79-2.441 1.94-2.944l.43 2.657zm4.812 1.795l27.502 3.877c-.36 2.226-.934 4.309-1.795 6.32l-27.861-7.9a3.988 3.988 0 0 0 2.154-2.297zm.215-1.867c-.071-.862-.43-1.652-.933-2.298l.43-.503h12.782l-1.22 2.586 16.659 1.005c0 1.077-.072 2.082-.216 3.16l-27.502-3.95zm30.877 1.005l.79.072c.215.574.79.933 1.436.933.215 0 .43-.071.646-.143.216.215.36.359.503.646l.287.431c.503.862 1.436 1.436 2.442 1.436h1.723c-.144.36-.215.718-.287 1.077l-7.612-1.077c0-1.149.072-2.298.072-3.375zm8.832 3.303h2.154c1.293 0 2.37-.79 2.729-2.082l.215-.718c.216-.646.575-1.149 1.078-1.508l2.082 6.75-8.617-1.221c.072-.359.216-.79.36-1.22zm8.832-4.81l6.822-.144c.287 0 .503.071.79.071.072.072.215.144.287.216l-6.032 5.816-1.867-5.96zm-17.592-4.955h-.575c-1.436-8.402-5.744-15.798-11.991-21.04l.359-.43c6.39 5.385 10.843 12.925 12.207 21.47zm-14.002-22.117c-1.724-1.292-3.59-2.513-5.601-3.446l.215-.503c2.01 1.005 3.95 2.154 5.673 3.518l-.287.431zm-21.111 59.887c-17.593 0-31.954-14.362-31.954-31.954 0-15.726 11.417-28.794 26.353-31.451l4.164 27.43c-1.651.574-2.872 2.154-2.872 4.021s1.22 3.375 2.872 4.021h.072l30.662 8.689c-4.955 11.273-16.229 19.244-29.297 19.244zm32.743-19.388c.862-2.154 1.436-4.452 1.867-6.75l7.683 1.077c0 .216-.071.503-.071.718 0 3.519 1.58 6.607 3.949 8.76l-13.428-3.805zm21.111 5.673c-.502 0-1.005-.072-1.508-.144l-2.8-.79c-3.734-1.651-6.39-5.385-6.39-9.765v-.575l9.621 1.364c.144.216.36.431.646.503.144 0 .216.072.36.072.071 0 .143 0 .215-.072l8.76 4.452c-1.795 3.016-5.098 4.955-8.904 4.955zm10.7-10.628c0 1.365-.288 2.657-.719 3.806l-7.898-3.95 6.39-6.175c.072.288.072.647 0 1.006l-.574 3.877c-.072.36.215.647.574.647h2.226c-.071.215 0 .502 0 .79zm25.921.216a35.334 35.334 0 0 1-.861-7.827c0-12.638 6.606-23.768 16.587-30.087l.215.575c-9.693 6.247-16.228 17.161-16.228 29.512 0 2.657.287 5.17.862 7.683l-.575.144zm2.8-7.827c0-10.986 5.602-20.752 14.075-26.497l.862 2.585-1.365.575c-.574.215-.861.933-.646 1.58.215.43.646.718 1.077.718.144 0 .287 0 .431-.072l1.22-.503 1.006 2.873c2.513 7.252 6.893 13.715 12.71 18.67l-28.651 6.964c-.43-2.226-.718-4.523-.718-6.893zm31.308-2.657c-5.313-4.595-9.334-10.484-11.632-17.162l-1.077-3.087 1.22-.503.503 1.652a.54.54 0 0 0 .503.359h.143c.288-.072.431-.36.36-.647l-.503-1.723.933-.43c.575-.216.862-.934.646-1.58-.215-.575-.933-.862-1.58-.647l-.717.287-.503-1.651 1.795-.718c.216-.072.287-.287.216-.431l-.216-.574c-.072-.216-.287-.288-.43-.216l-1.724.646-.072-.215a31.183 31.183 0 0 1 12.135-2.657v29.297zm-13.068-25.994l-.431.144c-.216.072-.287.287-.216.43l.216.575c.072.216.287.287.43.216l.36-.144.502 1.723-1.292.503-1.005-3.016 1.292-.646.144.215zm-2.442-2.513l-.215-.574c.503-.216.933-.503 1.436-.718l.144.574c-.431.287-.862.503-1.365.718zm48.11 31.164c0 17.592-14.36 31.954-31.953 31.954-14.792 0-27.215-10.125-30.877-23.768l29.584-7.18.216.215c.287.287.646.359 1.005.359.43 0 .862-.216 1.22-.575.575-.646.503-1.651-.143-2.226l-.36-.287v-30.374c17.306.287 31.308 14.505 31.308 31.882zm-32.6-35.616v.575a34.34 34.34 0 0 0-13.068 2.8l-.144-.575c4.021-1.795 8.473-2.728 13.212-2.8zm-25.922-24.701l4.38-1.58c.288-.072.503-.287.79-.43l-.071.143a.735.735 0 0 1-.36.43l-.502.36c-.718.43-1.077 1.364-.79 2.154l1.436 4.667-2.657.431-2.226-6.175zm2.944 8.473l2.585-.431 5.17 16.803c-.502.215-1.005.502-1.507.718l-.79-2.37.646-.215-4.093-12.423-1.149.36-.862-2.442zm-1.077 7.109l1.293 4.02-35.688 34.54c-.143 0-.215-.072-.359-.072l-14.72.215-11.776-38.703h61.25zm-77.12 13.858c-1.938-1.508-4.093-2.8-6.319-3.95l3.016-6.39h11.561l-8.258 10.34zm-29.512-14.361l24.486 3.878-2.729 5.888a38.37 38.37 0 0 0-15.725-3.375c-1.724 0-3.375.143-5.027.359l-1.005-6.75zM1764.53 250.162c12.396 0 22.748-8.308 25.979-19.715l48.662 1.978h.066c2.44 0 4.616-.923 6.264-2.44l3.034 2.638-2.704 3.494 2.572 1.978 6.66-8.572-2.572-1.978-2.638 3.363-2.967-2.571c.99-1.517 1.583-3.297 1.583-5.21 0-4.022-2.572-7.45-6.199-8.77 2.308-10.418 5.605-22.484 7.32-28.485l2.241 3.231-.725.528 1.253 1.78 5.869-4.022 8.506 10.814c-4.155 4.813-6.924 10.88-7.715 17.408-1.45.857-4.022 1.318-4.022 1.318v.528h7.12c.397-6.198 2.836-11.935 6.66-16.617l.198.264c-4.154 5.011-6.593 11.407-6.593 18.397 0 15.957 12.924 28.88 28.88 28.88 15.958 0 28.882-12.923 28.882-28.88 0-15.957-12.924-28.881-28.881-28.881-7.979 0-15.166 3.23-20.441 8.44l-.198-.264a29.42 29.42 0 0 1 7.32-5.34c1.516-1.583 1.252-4.155 1.252-4.155-4.022 1.583-7.583 4.022-10.616 6.924l-8.177-10.353.858-.593-1.253-1.78-.99.659-11.802-14.902.725-.528-1.319-1.714-1.714 1.385-2.176-2.902-.132.066-2.374-12.33c-.33-1.715-1.384-3.231-2.9-4.088a6.346 6.346 0 0 0-5.012-.528l-14.243 4.682.857 2.571 14.243-4.681c.923-.33 1.912-.198 2.77.264.857.461 1.45 1.318 1.648 2.307l2.637 13.584-.989.725 2.242 3.033-2.374 1.846 1.32 1.715 1.186-.923.132.132-.198.131 1.121 1.649c-4.022 1.187-11.21 3.824-17.54 8.967-5.077 4.089-16.55 10.88-25.32 15.892l-1.055-1.979c6.264-2.703 14.507-6.527 14.507-6.527s.197-3.957-5.275-2.506c-5.473 1.45-11.342 3.363-15.364.923s-9.034-8.572-11.54-6.066c-.79.791-1.45 1.384-1.977 1.912l-4.682-5.473c-.462-.593-1.319-.66-1.912-.132-.594.462-.66 1.319-.132 1.912l11.473 13.518 2.176 2.835s.396.528 1.187 1.121l.264.264c.263.264.593.395.923.461 1.12.594 2.571.924 4.286.33.791-.264 2.11-.791 3.692-1.45l1.187 2.241c-2.967 1.649-5.473 3.033-6.99 3.89-5.67-8.44-15.23-13.714-25.847-13.714-1.583 0-3.231.131-4.813.395 0 0 2.241 2.836 4.22 3.429h.593c9.231 0 17.54 4.55 22.55 11.869-.131.066-.263.066-.395.132-4.88-6.99-12.99-11.605-22.155-11.605-14.902 0-26.969 12.066-26.969 26.968-.264 14.836 11.87 26.903 26.771 26.903zm126.6-55.322c13.65 0 24.662 11.012 24.662 24.66 0 13.65-11.078 24.662-24.661 24.662-13.65 0-24.661-11.078-24.661-24.661 0-5.605 1.912-10.814 5.077-14.968l14.375 18.265 2.11-1.715-.528-.659 3.231.725c.132 0 .198.066.33.066.725 0 1.45-.527 1.582-1.319.198-.857-.395-1.78-1.253-1.912l-7.12-1.516-11.013-13.98c4.616-4.747 10.88-7.648 17.87-7.648zm-100.226 34.024c.066-.396.132-.791.198-1.253 2.044-.791 3.1-1.582 3.561-2.044l35.409-.857a9.103 9.103 0 0 0 3.626 5.868l-42.793-1.714zm-30.99-5.67c0-1.979 1.252-3.627 2.967-4.287v8.506a4.445 4.445 0 0 1-2.967-4.22zm21.495-9.232c.396.725.726 1.517 1.055 2.308l-7.78.33c2.308-.528 4.615-1.253 6.33-2.374a1.38 1.38 0 0 1 .395-.264zm57.762 1.583h.066c-.461 2.241-.923 4.351-1.253 6.33l-6.396.132c.594-3.627 3.759-6.462 7.583-6.462zm-9.231 6.527l-17.803.396-3.034-5.67 24.53-.99a9.231 9.231 0 0 0-3.693 6.264zm-22.023.528l-13.452.33a1.62 1.62 0 0 0-2.044.33s-.264.263-.989.659c0-.198.066-.462.066-.66 0-1.978-.198-3.824-.593-5.67l13.978-.594 3.034 5.605zm-24.134.593c0 1.055-.132 2.044-.264 3.034-3.362.461-7.846.79-13.913.461a6.246 6.246 0 0 0 1.055-3.495 6.075 6.075 0 0 0-2.241-4.747l14.572-.594c.527 1.715.791 3.495.791 5.341zm-17.671 3.297v-7.517c1.714.66 2.967 2.308 2.967 4.286 0 1.32-.594 2.572-1.517 3.363-.461-.066-.923-.132-1.45-.132zm73.06 4.352c-3.693 0-6.792-2.637-7.518-6.132l7.451-.198 5.078 4.418c-1.385 1.187-3.1 1.912-5.012 1.912zm7.648-7.649a7.302 7.302 0 0 1-1.253 4.089l-5.011-4.352c.33-2.11.791-4.484 1.319-6.924 2.901 1.187 4.945 3.956 4.945 7.187zm9.89-37.453l-1.384.99-10.286-15.166-.264.132-.264-.33.528-.396 11.67 14.77zm-28.946 2.242c6.528-5.275 14.309-7.714 17.408-8.572l2.44 3.561c-1.32 4.748-5.342 18.858-7.98 30.925h-.46-.067l-30.925 1.253-6-11.144c8.836-5.011 20.309-11.803 25.584-16.023zm-38.97 22.551c.726 1.385 1.385 2.902 1.847 4.484l3.626-1.12a31.425 31.425 0 0 0-1.714-4.353c1.45-.791 3.692-2.044 6.396-3.56l5.077 9.429-13.517.527c-.528-1.846-1.187-3.626-2.044-5.275.066-.066.198-.066.33-.132zm-24.265-6.594c6.132 0 11.54 2.836 15.1 7.32-.132.066-.198.131-.33.197-4.55 2.902-14.704 3.034-14.77 3.034-.923 0-1.582.725-1.582 1.648v1.121c-2.638.725-4.55 3.1-4.55 5.934 0 3.1 2.308 5.671 5.34 6.133.199.132.462.263.726.263 3.759.33 6.99.462 9.891.462 1.385 0 2.638-.066 3.824-.066l4.352.198c-2.77 7.187-9.759 12.33-17.935 12.33-10.616 0-19.254-8.638-19.254-19.254-.132-10.682 8.506-19.32 19.188-19.32zM1069.62 179.544c-4.632 0-9.01.889-13.072 2.539-.507-1.396-.951-2.539-1.269-3.49l.318-.127-5.965-18.592-.444.127-.254-.762 13.58-2.665 3.743 3.49c.127.571.254 1.84-.571 3.363-1.333 2.602-4.76 4.696-9.836 6.155-.824.254-1.269 1.079-1.015 1.84.19.635.762 1.08 1.46 1.08.127 0 .253 0 .38-.064 6.092-1.714 10.026-4.315 11.74-7.742 1.268-2.538.888-4.759.697-5.583l3.173-5.013c.317-.127.57-.318.761-.635l.127-.254c.952 1.016 2.094 2.792 2.348 5.394.508 4.822 1.904 6.345 2.094 6.472a.72.72 0 0 0 .508.19.72.72 0 0 0 .507-.19c.254-.254.254-.698 0-1.015 0 0-1.205-1.27-1.65-5.584-.317-3.236-1.903-5.393-3.045-6.536l1.84-3.109c.444-.698.19-1.65-.508-2.094-.698-.444-1.65-.19-2.094.508l-2.474 4.124-8.186 2.158-15.927 3.109c-.444.063-.761.317-1.015.698-.19.38-.254.825-.127 1.205l.762 2.412-.508.127.952 2.982-54.507 2.665-.507-1.65 1.205-.317c.508-.127.762-.635.635-1.142-.127-.508-.635-.762-1.142-.635l-2.094.571-4.125-14.023c.762-.19 1.46-.444 1.967-.698 1.46-.698 3.427-1.903 4.188-2.348 7.297-.253 7.297-1.205 7.297-1.205-.444-1.206-3.743-1.142-7.36-1.079-3.617.064-16.117.38-19.924-.127-3.808-.507-4.632.38-4.632.38s5.71 2.476 8.756 3.3h.064c.38.952 1.269 2.792 2.918 2.856h.254c1.079 0 2.665-.19 4.188-.571l4.188 14.086-2.855.825c-.508.127-.762.635-.635 1.142.127.381.444.635.888.635.064 0 .19 0 .254-.064l1.967-.57 1.333 4.441-7.615 13.071c-5.012-2.728-10.723-4.25-16.815-4.25-19.48 0-35.343 15.862-35.343 35.343 0 19.48 15.863 35.343 35.343 35.343 12.437 0 23.415-6.472 29.76-16.244l9.708.571c.762.19 1.587.254 2.411.254 2.665 0 5.077-.888 7.044-2.348l2.474 2.665-2.094 2.729c-.38.444-.38 1.142.064 1.586.19.19.508.317.761.317.318 0 .571-.127.825-.38l5.901-6.41c.381-.443.381-1.141-.063-1.586a1.174 1.174 0 0 0-1.586.064l-2.094 2.284-2.285-2.538c1.904-2.094 3.11-4.886 3.11-7.932 0-2.728-.952-5.203-2.475-7.233l35.09-38.39.76 2.285.445-.127c.38 1.015.825 2.348 1.396 3.87-11.485 5.838-19.353 17.767-19.353 31.537 0 19.48 15.863 35.343 35.343 35.343 19.48 0 35.344-15.863 35.344-35.343 0-19.48-15.864-35.47-35.407-35.47zm-89.913-29.569c-1.016-.063-1.65-1.078-2.03-1.84 2.791.254 6.535-1.142 13.134-1.396-.888.508-2.03 1.206-2.919 1.587-.444.19-1.142.444-1.904.634-.19-.508-.76-.825-1.332-.698-.508.127-.825.635-.761 1.142-1.587.38-3.237.571-4.188.571zm10.406 23.668l10.914 37.374-1.142-.063c-1.206-10.978-7.488-20.432-16.371-26.016l6.599-11.295zm-28.935 54.19c.254-.128.508-.128.698-.128h.127l-.952 1.206c-.317.444-.253 1.079.19 1.396.191.127.381.19.635.19.318 0 .571-.126.825-.38l.952-1.206c.063.19.127.38.127.571 0 1.015-.825 1.84-1.84 1.84a1.841 1.841 0 0 1-1.84-1.84c-.064-.698.444-1.332 1.078-1.65zm3.173 1.713c0-.445-.127-.825-.317-1.143l1.84-2.347 1.142-.444c.063 0 .063 0 .127-.064l.063-.063c.064 0 .064-.064.064-.064.57-.317.952-.952.952-1.65 0-.761-.445-1.396-1.08-1.713v-.063l-.126-.064-.254-1.332a5.962 5.962 0 0 0 3.617-3.49l24.43 4.759c-.064.38-.064.761-.064 1.142v.508c-1.015 3.49-2.602 6.662-4.632 9.518l-26.777-1.65c.634-.317 1.015-1.015 1.015-1.84zm.698-5.711c0-.254.063-.444.19-.635l.064.381-.254.254zm30.838-12.5c.127 1.205.19 2.347.19 3.616 0 1.08-.063 2.094-.19 3.173-.254.508-.444 1.079-.634 1.65l-24.43-4.76v-.063c0-1.84-.825-3.49-2.157-4.632l.317-.57 26.904 1.586zm-26.523-2.158l12.056-20.75a31.223 31.223 0 0 1 14.34 22.273l-26.396-1.523zM966 216.284l3.617.698a5.358 5.358 0 0 1-2.92 2.855l-.697-3.553zm.507-2.158l1.84-3.109c1.016.952 1.714 2.285 1.714 3.807l-3.554-.698zm-.127-4.187l-2.601 4.441c-.19.318-.19.698-.064 1.016 0 .063.064.063.064.126l.888 4.696c-2.919 0-5.266-2.411-5.266-5.267a5.321 5.321 0 0 1 5.33-5.33c.57 0 1.142.127 1.65.318zm.572 15.038l-.127.063h-.127l.507-.634a.962.962 0 0 0 .19-.825l-.126-.825c.317.254.507.571.507 1.015-.063.571-.38 1.016-.824 1.206zm33.122-10.724a8.09 8.09 0 0 1 1.586-.951l2.412 8.185-4.379-.825c.318-1.84.445-3.744.445-5.647 0-.317-.064-.571-.064-.762zm5.457-2.094c.38-.063.762-.063 1.079-.063 2.157 0 4.124.635 5.774 1.65l-4.886 5.33-1.967-6.917zm-4.124.318c-.445.254-.952.507-1.333.761 0-.57-.063-1.142-.127-1.65l1.27.064.19.825zm-36.676 33.82c-17.26 0-31.346-14.086-31.346-31.346 0-17.259 14.086-31.346 31.346-31.346 5.33 0 10.406 1.333 14.784 3.744l-12.69 21.701-.762-.063a4.948 4.948 0 0 0-1.396-.19 6.093 6.093 0 0 0-6.091 6.09c0 2.793 1.84 5.077 4.378 5.839l1.904.888.126.698c-.38.38-.634.825-.634 1.396 0 .254.063.444.127.698l-1.586 2.03-2.031.762h-.063a2.427 2.427 0 0 0-1.46 2.22c0 1.27.952 2.285 2.158 2.412l28.11 1.713c-5.585 7.805-14.658 12.754-24.874 12.754zm30.14-12.88c.761-1.206 1.396-2.475 2.03-3.744 1.27 1.84 2.983 3.3 5.013 4.187l-7.043-.444zm11.739.634a10.873 10.873 0 0 1-9.328-5.267c.825-1.967 1.46-3.997 1.967-6.091l5.52 1.078a2.212 2.212 0 0 0 1.397 1.206c.127.063.317.063.444.063s.19-.063.254-.063l6.218 6.853c-1.777 1.46-3.998 2.22-6.472 2.22zm10.977-10.978c0 2.856-1.079 5.394-2.855 7.361l-6.028-6.663 6.662-7.297a10.877 10.877 0 0 1 2.221 6.6zm-4.632-9.962c-1.84-1.205-3.997-1.84-6.345-1.84-.317 0-.635 0-.889.064h-.444l-12.056-41.308 54.57-2.666 1.84 5.711-36.676 40.04zm56.664 33.186c-17.26 0-31.346-14.086-31.346-31.346 0-11.992 6.79-22.462 16.752-27.729 3.616 9.455 9.137 22.97 13.261 28.681.318.444.825.635 1.333.635.317 0 .634-.127.952-.318.698-.507.888-1.522.38-2.22-3.934-5.394-9.39-18.783-12.944-28.11 3.617-1.46 7.55-2.285 11.612-2.285 17.26 0 31.346 14.087 31.346 31.346 0 17.26-14.023 31.346-31.346 31.346zM1457.745 180.082c-4.543 0-8.89.922-12.906 2.502l-2.898-8.23-.065-.264-2.832-3.227-.066-.197.988-.396-5.136-13.96-1.12.395-1.053-2.831 6.914-4.939c.658-.46.922-1.25.658-1.975-.263-.725-.922-1.251-1.712-1.251h-9.219a1.32 1.32 0 0 0-1.317 1.317 1.32 1.32 0 0 0 1.317 1.317h6.717l-4.28 3.095-.395-1.186-2.437.856.659 1.91c-.395.46-.461 1.12-.066 1.58.197.264.527.461.856.461l.922 2.503-1.12.395.659 1.843-52.877 15.08-1.251-4.017 1.778-.658c.46-.132.658-.659.526-1.12-.131-.46-.658-.658-1.119-.527l-2.305.79-5.663-18.635c.79-.263 1.449-.724 2.502-1.383.33-.197.659-.46 1.12-.724 2.107-1.383 4.61-1.449 4.61-1.449v-.066c1.316 0 2.37.066 2.7.132 1.184.198 1.711.79 2.238.33.527-.462.132-1.91-1.185-2.898-1.317-.988-2.37-1.12-8.56-.922-6.19.198-14.62-.658-16.99-.527-2.37.132-2.173 2.7-2.173 2.7 0 .461 2.37 1.58 5.005 2.502l.987 1.317a4.148 4.148 0 0 0 3.293 1.647h.066c1.448 0 3.226-.066 4.478-.198l5.728 18.899-1.646.593c-.46.131-.658.658-.527 1.119.132.33.461.593.79.593.066 0 .198 0 .264-.066l.922-.33 1.712 5.532-8.297 10.075c-5.926-4.675-13.433-7.441-21.533-7.441-19.294 0-35.032 15.738-35.032 35.032 0 19.294 15.738 35.032 35.032 35.032 14.29 0 26.603-8.627 32.069-20.875l13.697-2.502c.46-.066.921-.197 1.382-.395l4.412 8.626-3.029 1.58c-.658.33-.922 1.186-.592 1.91.263.461.724.725 1.25.725.198 0 .462-.066.66-.132l7.77-4.083c.658-.329.921-1.185.592-1.91-.33-.658-1.185-.921-1.91-.592l-3.029 1.58-4.346-8.56c2.108-1.449 3.49-3.885 3.49-6.585a7.57 7.57 0 0 0-1.975-5.136c22.784-29.567 33.715-41.222 37.995-45.37l1.383 3.687.988-.395.263.659 2.766 3.226 2.897 8.165c-11.59 5.73-19.557 17.648-19.557 31.41 0 19.294 15.738 35.033 35.032 35.033 19.293 0 35.032-15.739 35.032-35.032.131-19.426-15.607-35.164-34.9-35.164zm-94.164-29.5a3.368 3.368 0 0 1-2.7-1.317l-.264-.33c.527.132.988.264 1.45.395 3.49.856 5.53-.197 7.77-1.317.921-.46 2.765-.724 4.675-.79-.527.198-.988.461-1.515.79-.395.264-.79.527-1.12.725-.987.658-1.58 1.053-2.238 1.317v-.066l-1.251.395c-.79.066-2.503.132-4.807.197zm12.511 29.105l9.68 31.015-5.466-.33a35.103 35.103 0 0 0-11.655-21.598l7.441-9.087zm4.412 37.93c.066-.857.132-1.647.132-2.503 0-1.185-.066-2.305-.198-3.424l5.597.329c-2.041 1.185-3.556 3.227-3.95 5.663-.527 0-1.054-.066-1.581-.066zm-34.966-7.903c.988 0 1.844.264 2.634.725l-3.424 4.148c-.198.264-.264.593-.198.856.066.198.198.395.33.527l2.37 4.346c-.593.198-1.185.33-1.778.33a5.452 5.452 0 0 1-5.465-5.466c.131-3.03 2.568-5.466 5.53-5.466zm5.465 5.532c-1.712-.264-2.897-.527-3.753-.659l2.436-2.963c.79.922 1.317 2.173 1.317 3.49v.132zm-.395 8.692l.066-.79c0-.198 0-.33-.066-.527l-.395-.659c.461.132.79.593.79 1.12 0 .329-.131.658-.395.856zm-1.778-4.478l-1.514-2.832c.79.198 1.91.396 3.292.593-.395.856-.987 1.646-1.778 2.239zm-.131 3.358l.263.461-.066.527c-.131-.198-.263-.395-.263-.658 0-.198.066-.264.066-.33zm-.264 4.873l-.329 2.634c-.066.461.263.922.724.922h.066c.461 0 .79-.33.856-.79l.33-2.634c.987.46 1.646 1.383 1.646 2.502a2.782 2.782 0 0 1-2.766 2.766 2.782 2.782 0 0 1-2.766-2.766c0-1.251.988-2.37 2.24-2.634zm1.844-1.12l.066-.855.658-.527a2.41 2.41 0 0 0 1.252-2.107 2.43 2.43 0 0 0-2.437-2.437h-.33c1.12-.79 1.91-1.91 2.371-3.226 4.412.658 11.524 1.382 22.587 1.91-.527 3.555-1.58 6.848-3.227 9.877l-18.767 3.49c.395-.659.659-1.383.659-2.173-.066-1.91-1.186-3.359-2.832-3.951zm1.976-11.128v-.33a6.496 6.496 0 0 0-1.778-4.477l.526-.592 23.443 1.317c.132 1.25.263 2.502.263 3.819 0 .724-.066 1.514-.131 2.239-10.931-.593-17.977-1.383-22.323-1.976zm22.06-5.4l-22.258-1.25 12.84-15.541c4.808 4.28 8.232 10.14 9.417 16.792zm12.181 3.161l1.449 4.676c-1.58-.066-3.095-.066-4.544-.132.33-1.91 1.515-3.556 3.095-4.544zm4.083 2.24l-.988-3.162c.132 0 .264-.065.395-.065a6.96 6.96 0 0 1 2.634.526c-.658.922-1.383 1.778-2.041 2.7zm-45.041 28.907c-16.133 0-29.237-13.104-29.237-29.237s13.104-29.237 29.237-29.237c6.717 0 12.906 2.305 17.845 6.124l-13.697 16.594-4.082-.264h-.066c-3.688 0-6.717 3.03-6.717 6.717 0 3.688 3.03 6.717 6.717 6.717h2.107c-.197.329-.33.724-.33 1.185 0 .988.528 1.778 1.384 2.173v.198l-2.173 1.712a4.02 4.02 0 0 0-1.647 3.226c0 2.24 1.844 4.083 4.083 4.083.33 0 .659-.066.922-.132l20.347-3.753c-5.07 8.429-14.223 13.894-24.693 13.894zm34.768-24.825c.593 0 1.186.066 1.778.066.264 2.963 2.173 5.531 4.807 6.65l-8.758 1.647c1.054-2.634 1.778-5.466 2.173-8.363zm9.68 6.058c-3.424 0-6.19-2.568-6.585-5.926 1.712.065 3.424.131 5.268.197.264.33.593.593 1.054.659l2.37 4.675a5.704 5.704 0 0 1-2.107.395zm6.651-6.65a6.553 6.553 0 0 1-2.831 5.399l-2.371-4.675a313.831 313.831 0 0 1 3.753-4.873c.856 1.12 1.45 2.568 1.45 4.148zm-3.227-7.178c-1.053-.527-2.173-.79-3.424-.79l-.856-.066-10.14-32.53 53.074-15.014.593 1.647c-3.622 3.49-14.421 14.618-39.247 46.753zm64.335 32.595c-16.133 0-29.237-13.104-29.237-29.237 0-11.26 6.388-21.006 15.738-25.879l.461 1.251-.527.198 7.968 22.52.527-.197.132.395 4.148 2.897c.264.198.527.264.79.264.461 0 .856-.198 1.12-.593.46-.659.263-1.515-.33-1.976l-2.963-2.04.198-.067-7.968-22.52-.527.197-.527-1.514a28.896 28.896 0 0 1 10.931-2.173c16.134 0 29.238 13.104 29.238 29.237.065 16.133-13.104 29.237-29.172 29.237zM1671.903 180.005c-.265 0-.464 0-.73.066v-.198c.266 0 .531-.067.73-.067V175.3h-.994l-.133-2.386 2.519-.663c.994-.265 1.657-1.26 1.524-2.32l-2.916-18.163-18.759 5.436.331.862-6.297 1.59-.331-.994 4.11-4.308c.265-.266.397-.73.331-1.127-.066-.398-.331-.73-.663-.928l-13.19-6.695c-.2-.066-.399-.133-.597-.133h-2.188a2.203 2.203 0 0 0-1.856-.994h-13.522c-1.26 0-2.254.994-2.254 2.254s.994 2.253 2.254 2.253h13.522c.796 0 1.458-.397 1.856-.994h1.856l11.335 5.767-3.447 3.646a1.218 1.218 0 0 0-.265 1.325l1.525 4.508-.928.331.795 2.254c-3.778 1.79-12.064 6.23-17.632 12.263-7.225 7.755-10.01 10.473-15.047 13.058-3.844 1.923-10.009 4.707-13.058 6.032l-8.816-21.609 1.326-.597c.464-.198.729-.795.53-1.259-.2-.464-.796-.73-1.26-.53l-1.922.861-3.646-8.75h.067c2.717-.53 7.225-3.645 9.015-4.97.464-.332.596-.995.265-1.459-.53-.862-1.392-2.055-2.387-2.585-1.59-.862-6.363.994-8.153 2.055-1.79 1.127-9.611.331-13.058 0-3.447-.332-2.652 2.253-2.585 3.314.066.795-.2 1.59 1.325 2.917.332.331 1.127.53 2.188.729l3.248 5.369c.265.398.663.596 1.127.596.199 0 .464-.066.663-.198.397-.266.596-.73.596-1.194.265-.198.597-.397.862-.596 1.193-.862 2.121-1.591 3.248-1.591.663 0 1.26-.066 1.723-.133l3.116 7.49-1.127.465c-.464.199-.73.795-.53 1.26.132.33.53.596.861.596.133 0 .265 0 .398-.067l.53-.198 1.127 2.784c-.994.464-1.922.994-2.85 1.524l-7.69-8.683c-.198-.265-.53-.398-.927-.398l-39.904-1.922c-.73 0-1.326.53-1.326 1.26-.066.728.53 1.325 1.26 1.325l11.997.596c.73.53 1.989 1.392 3.513 2.586-5.303 1.126-10.34 3.248-14.782 6.363l-5.435-1.525.331 5.834c-3.977 3.91-7.225 8.617-9.28 14.052 0 0 3.779.133 5.9-2.055.663-1.193 1.326-2.386 2.121-3.513l.199.133c-3.845 5.634-6.098 12.395-6.098 19.687 0 19.289 15.71 34.999 34.999 34.999 15.71 0 29.1-10.407 33.474-24.725l10.075 1.657h.133c.53.066 1.06.133 1.657.133 2.386 0 4.64-.862 6.364-2.254l4.374 3.91-2.32 2.652c-.729.796-.662 2.055.133 2.718a1.86 1.86 0 0 0 1.26.464c.53 0 1.06-.199 1.458-.663l6.695-7.556c.729-.796.662-2.055-.133-2.718-.795-.73-2.055-.663-2.718.132l-2.187 2.52-4.375-3.912c.994-1.59 1.59-3.446 1.59-5.435 0-.73-.065-1.392-.198-2.055a39.826 39.826 0 0 0 6.165-3.844c4.176-3.248 6.297-7.49 8.617-11.998 1.193-2.32 2.386-4.706 3.977-7.16 3.248-5.103 10.805-12.395 14.65-15.974l.596 1.657.596-.199c.265.73.73 1.923 1.326 3.447-11.666 6.96-19.488 19.687-19.488 34.204 0 2.585.265 5.104.73 7.623 0 0 3.446-2.055 3.844-5.237-.067-.795-.067-1.59-.067-2.386 0-.265.067-.53.067-.862h.265c0 .265-.067.53-.067.862 0 19.289 15.71 34.999 35 34.999 19.289 0 34.998-15.71 34.998-35-.132-19.421-15.842-35.13-35.131-35.13zm-89.354-13.588c-1.59 0-2.784.861-4.043 1.856a3.643 3.643 0 0 0-.597.464l-1.856-3.05c2.453.133 5.237.133 7.424-.066l.332.796c-.464-.067-.862 0-1.26 0zm86.636 13.72a33.804 33.804 0 0 0-12.86 3.58c0-.066-.066-.132-.066-.199 3.978-1.988 8.352-3.248 12.926-3.58v.2zm-9.876 10.01c3.115-1.59 6.628-2.585 10.274-2.917l1.127 23.267c-4.707-7.027-8.551-14.252-11.401-20.35zm9.478 23.333l-24.724-.928c.795-8.684 5.502-16.174 12.395-20.748 3.116 6.43 7.292 14.185 12.33 21.676zm-73.245 1.79v-.266c0-1.856-.2-3.646-.464-5.369h.265c.265 1.79.464 3.58.464 5.37h.132c0 .065 0 .198-.066.264h-.331zm-.53-7.557h-.266c-1.79-8.286-6.496-15.445-12.926-20.416.067-.067.133-.133.2-.133 6.495 4.972 11.268 12.197 12.991 20.549zm-34.735 4.64c-.132.331-.265.663-.397.928l-.73-.53c.266-.2.663-.332 1.127-.398zm2.387.994c.132.133.199.331.265.464h-.53c.132-.133.198-.265.265-.464zm8.683-19.223c-1.127-2.121-2.452-4.176-3.91-6.165 2.452.597 4.706 1.525 6.893 2.718a121.723 121.723 0 0 0-2.983 3.447zm5.237-1.922c5.435 3.778 9.412 9.479 11.07 16.107l-23.4 1.79c2.32-4.706 6.43-11.733 12.33-17.897zm3.049-6.496c-5.502-3.58-12.064-5.7-19.09-5.7h-.332c-.066-.067-.132-.133-.265-.2h.597c7.092 0 13.72 2.121 19.289 5.767-.067 0-.133.066-.2.133zm-15.18 1.723c2.122 2.585 4.11 5.436 5.568 8.419-4.176 5.501-7.092 10.937-8.816 14.516l-1.193.066h-.132a4.456 4.456 0 0 0-2.387 1.127l-18.957-13.655c5.104-6.562 13.058-10.804 22.007-10.804 1.325 0 2.651.132 3.91.331zm-6.496 26.912l1.392.995c.067.132.067.265.133.397.199.332.597.53.994.597l2.32.132a2.674 2.674 0 0 1-2.32 1.326c-1.458 0-2.717-1.193-2.717-2.718.132-.265.132-.53.198-.729zm6.96 2.188l23.4 1.06c-.133 1.591-.465 3.182-.862 4.707l-23.664-3.978c.53-.53.861-1.126 1.126-1.79zm.133-2.585a5.425 5.425 0 0 0-.928-1.856l23.93-1.856c.264 1.524.463 3.115.463 4.772l-23.465-1.06zm32.944 1.06h2.32c0-1.26-.066-2.585-.199-3.844.265-.266.597-.53.995-.796l2.12 5.17-5.368-.265.132-.265zm6.695-6.032c.398-.066.795-.132 1.193-.132 2.718 0 5.104 1.325 6.629 3.38-2.188 1.06-4.176 1.856-5.502 2.32l-2.32-5.568zm-5.104-1.59c-.133-.531-.199-.995-.331-1.525l.596 1.524h-.265zm-4.905-12.794a38.29 38.29 0 0 0-8.816-10.208c1.193-.795 2.452-1.458 3.778-2.055l5.038 12.263zm-42.025-20.946l23.796 1.127 6.761 7.556c-6.43-4.441-14.251-7.092-22.603-7.092-1.79 0-3.58.132-5.37.397a62.407 62.407 0 0 1-2.584-1.988zm-20.085 20.018c5.9-7.69 14.848-12.727 24.658-13.655l.2.199c-10.01.862-18.826 6.032-24.66 13.589l-.198-.133zm27.973 49.25c-15.379 0-27.907-12.528-27.907-27.906 0-5.767 1.724-11.07 4.707-15.51l18.957 13.654a4.448 4.448 0 0 0-.397 1.856c0 2.32 1.723 4.242 3.91 4.574h.067l26.978 4.507c-3.712 10.937-14.119 18.826-26.315 18.826zm34.866-25.056h.398c.199 2.453 1.26 4.574 2.85 6.231l-4.176-.663a30.52 30.52 0 0 0 .928-5.568zm10.473 7.358c-4.176 0-7.623-3.182-8.087-7.225l6.563.265c.331.398.729.597 1.193.663l5.17 4.64c-1.326.994-3.05 1.657-4.839 1.657zm8.153-8.22c0 1.525-.464 2.917-1.127 4.11l-3.645-3.248a135.91 135.91 0 0 0 4.706-1.988c0 .398.066.729.066 1.127zm17.168-27.177c-1.657 2.586-2.916 5.105-4.176 7.49-2.187 4.31-4.043 8.021-7.49 10.74-1.59 1.259-3.447 2.32-5.303 3.313-1.79-2.717-4.905-4.44-8.352-4.44h-.265H1604.755l-.861.066-3.05-7.49c3.05-1.326 9.347-4.11 13.258-6.1 5.435-2.783 8.285-5.567 15.71-13.588 5.17-5.501 12.925-9.744 16.637-11.533l1.26 3.645c-3.315 3.05-12.595 11.733-16.506 17.897zm22.14-13.522l.596-.199-4.838-14.052-.928.331-.133-.331 6.363-1.657 5.37 13.522c.397.994 1.458 1.524 2.452 1.26l6.562-1.79.067 1.988c-5.17.398-10.076 1.724-14.45 3.911-.465-1.326-.796-2.32-1.061-2.983zm-16.572 35.927c.928-11.467 7.358-21.41 16.638-27.177 0 .066.066.132.066.199-9.213 5.7-15.577 15.577-16.505 26.978h-.199zm35.132 30.69c-15.378 0-27.906-12.528-27.906-27.906v-.596l26.182.994c.133.199.266.331.398.53.332.464.796.663 1.326.663.331 0 .663-.066.928-.331.729-.53.862-1.525.398-2.254-.133-.199-.266-.398-.398-.53l-1.326-26.382h.398c15.378 0 27.906 12.528 27.906 27.906 0 15.378-12.528 27.907-27.906 27.907zM2108.663 183.188l.402-2.612h6.028v1.407c0 .536.401 1.072.937 1.205l4.019 1.139.535-7.501-4.42.603c-.603.067-1.072.602-1.072 1.272v.67h-5.826l.401-2.277 11.52-2.478c.603-.134.938-.737.87-1.273-.133-.603-.736-1.005-1.272-.87l-30.272 6.429-7.703-34.291c-.134-.603-.736-.938-1.34-.804-.602.134-.937.737-.803 1.34l7.903 35.095-3.884 1.808a16.527 16.527 0 0 0-.402-1.54l.469-.135-6.765-18.552-.402.134-6.228-18.016c-.134-.402 0-.804.268-1.072l.937-.87a3.135 3.135 0 0 0 .938-3.081l-1.139-5.09c-.2-.871-.736-1.608-1.473-2.01-.737-.468-1.608-.602-2.478-.401l-19.088 4.822c-.603.134-.938.737-.804 1.34.134.602.737.937 1.34.803l19.088-4.822c.267-.067.535 0 .803.134s.402.402.47.67l1.138 5.09c.067.334-.067.736-.335 1.004l-.938.87a3.259 3.259 0 0 0-.87 3.417l6.228 18.016-.469.2 2.88 7.971c-.937 1.473-11.185 18.686-18.954 32.75h-28.263l-12.257-30.272.536-.2c.335-.135.469-.47.335-.805-.134-.334-.469-.468-.804-.334l-1.004.401-4.89-11.318c2.813-1.072 3.684-1.742 4.488-2.412.469-.401.937-.736 1.808-1.205 3.483-.067 6.965-.067 6.296-1.607-.737-1.675-2.813-2.68-6.698-2.21-3.884.468-7.3 1.272-12.055 1.272-4.756 0-7.836-.737-8.707 1.071-.87 1.742-.469 2.613 3.617 5.024 0 0 3.482 2.076 5.558.803.335.134.737.201 1.34.201.536 0 1.139-.067 1.875-.2l5.023 11.52-.736.334c-.335.134-.47.469-.335.804.067.268.335.402.603.402.067 0 .134 0 .267-.067l.335-.134 2.478 6.094c-1.071.938-2.277 2.21-3.75 3.75-2.143-1.874-8.908-7.433-16.275-8.84h-45.811c-.603 0-1.072.469-1.072 1.072 0 .603.469 1.071 1.072 1.071h9.577l5.492 8.305c-.67.47-1.34.938-2.01 1.474-6.429 5.224-10.983 12.524-12.791 20.561 0 0 1.875-.469 3.683-2.746 2.344-6.898 6.899-12.792 12.659-16.878l.268.402c-8.573 6.095-14.2 16.074-14.2 27.393 0 18.552 15.07 33.622 33.622 33.622 14.534 0 26.924-9.31 31.613-22.303l14.332 2.344c1.809.335 3.617.067 5.224-.603l2.077 3.751-4.689 1.473c-.803.268-1.272 1.139-1.004 1.943.2.67.803 1.071 1.473 1.071.134 0 .335 0 .47-.067l12.122-3.884c.803-.268 1.272-1.139 1.004-1.942-.268-.804-1.138-1.273-1.942-1.005l-5.023 1.607-2.277-4.22c2.143-1.607 3.616-4.085 3.884-7.032.067-.468 0-.87 0-1.34 5.157-.937 11.855-3.817 16.275-11.92 6.162-11.32 14.534-25.518 18.284-31.747l1.943 5.291.134-.067c.2.938.535 2.143.937 3.617-10.38 6.563-17.28 18.083-17.28 31.277 0 2.612.269 5.291.804 7.836 0 0 1.809-1.875 2.21-4.085a34.26 34.26 0 0 1-.2-3.75c0-11.855 6.094-22.304 15.27-28.465.067.134.134.335.134.536-8.975 6.027-14.935 16.275-14.935 27.928 0 18.552 15.069 33.622 33.621 33.622s33.622-15.07 33.622-33.622c-.134-16.543-11.989-30.206-27.594-33.086zm-96.512-23.106l-.468-1.005c1.674-.803 3.482-1.406 5.157-1.607a2.035 2.035 0 0 1-.47.335c-.669.603-1.473 1.205-4.219 2.277zm-3.951.87c.402-.267.804-.468 1.272-.736l.268.603c-.602.067-1.138.134-1.54.134zm10.247 21.5l11.386 28.13h-5.224c-1.34-8.707-5.693-16.477-12.056-22.036.536-.602 1.072-1.205 1.608-1.74.2-.068.335-.135.469-.269.134-.134.2-.335.267-.469 1.407-1.473 2.546-2.679 3.55-3.616zm3.349 28.13h-.536c-1.272-7.703-5.224-14.534-10.85-19.557.134-.134.201-.268.335-.402 5.693 5.157 9.711 12.122 11.05 19.958zm-32.55.2v-23.106c6.162.268 11.855 2.41 16.409 5.96-5.291 6.095-10.783 12.793-14.333 17.146h-2.076zm4.487 0a946.047 946.047 0 0 1 13.328-15.94c4.555 4.086 7.836 9.578 9.109 15.806l-22.437.134zm15.204-20.963c-5.492-4.353-12.257-6.965-19.691-7.233v-.536c7.568.268 14.534 2.947 20.093 7.367l-.402.402zm-21.901 21.097c-.335.067-.603.134-.87.268l-12.793-19.423a27.427 27.427 0 0 1 13.663-4.085v23.24zm25.45-24.982c-.401.47-.87.938-1.272 1.407a37.048 37.048 0 0 0-21.968-8.104v-1.607h8.104c6.697 1.339 13.06 6.496 15.136 8.304zm-48.423-8.304h22.973v1.607c-6.497.2-12.793 2.076-18.284 5.492l-4.689-7.1zm6.229 9.51c4.956-3.08 10.716-4.822 16.744-5.023v.536c-6.028.2-11.654 1.942-16.476 4.956l-.268-.469zm17.815 57.599c-15.739 0-28.598-12.793-28.598-28.599 0-9.577 4.755-18.016 11.988-23.24l12.793 19.356a5.865 5.865 0 0 0-1.809 3.683c-.267 2.947 1.809 5.626 4.756 6.095l27.46 4.554c-4.22 10.65-14.534 18.15-26.59 18.15zm55.992-29.201c-1.675-2.947-4.823-4.957-8.506-4.957h-2.01l-1.071-2.679h23.91c-3.55 4.957-8.238 6.966-12.323 7.636zm40.788-32.684l4.085-1.876c.201.134.469.268.67.268h.2l1.742-.402c-2.277.737-4.487 1.608-6.563 2.746 0-.268-.067-.469-.134-.736zm1.071 3.55a33.915 33.915 0 0 1 16.61-4.354v-2.813c-1.54 0-3.08.134-4.554.268l10.046-2.143-.938 5.559c-1.54-.201-3.013-.335-4.62-.335-5.962 0-11.588 1.607-16.41 4.286a1.242 1.242 0 0 1-.134-.469zm15.94 27.66c-6.764-5.96-11.318-14.935-14.131-22.303 4.286-2.612 9.31-4.152 14.734-4.152 1.273 0 2.545.134 3.75.268l-4.353 26.187zm.603 30.675c-15.74 0-28.598-12.793-28.598-28.599 0-9.443 4.621-17.815 11.653-22.972 3.148 8.037 8.238 17.815 16.141 23.977l.335-.402c.067 0 .134.067.201.067h.134a.796.796 0 0 0 .804-.67l4.688-28.062c13.194 2.478 23.24 14.131 23.24 28.062 0 15.806-12.792 28.599-28.598 28.599zM1252.941 196.854c-3.166 0-6.177.571-8.98 1.557l-2.129-6.8.468-.156-3.582-11.991-.78.26-.726-2.181 4.516-1.765-1.972-12.978c-.26-1.557-1.35-2.855-2.855-3.322l-8.721-2.804-.675 2.18 8.72 2.804a1.852 1.852 0 0 1 1.299 1.505l1.713 11.161-2.7 1.039-.155-.468-2.804.935.208.623-1.038.415.83 2.128.935-.363.623 1.973-.779.207.52 1.661-41.582 15.574-.415-1.09.207-.104-.623-1.505-.467.207-3.01-8.513c.467-.312.934-.623 1.349-.935 1.869-1.453 4.984-.934 6.385-1.557 1.402-.623 2.388-1.454 1.713-2.077-.675-.622-2.388-2.18-5.295-1.35-2.907.831-8.877 2.181-11.057 2.025-2.18-.155-9.863-.934-6.645 2.44 0 0 4.361 4.101 7.32 3.738 1.35-.156 2.647-.52 3.79-1.038l2.958 8.254-1.245.467.623 1.505.882-.363.675 1.869-7.683 6.125c-4.88-5.71-12.147-9.344-20.246-9.344-14.69 0-26.682 11.94-26.682 26.683 0 14.69 11.94 26.682 26.682 26.682 12.615 0 23.205-8.825 25.956-20.66l10.746.31a9.84 9.84 0 0 0 5.71-1.816l1.869 2.128-2.388 2.129c-.623.519-.675 1.453-.104 2.076.312.312.675.467 1.09.467.364 0 .675-.103.987-.363l6.177-5.555c.623-.519.675-1.453.104-2.076-.52-.623-1.454-.675-2.076-.104l-2.336 2.129-1.817-2.129c1.66-1.765 2.75-4.153 2.75-6.8 0-1.713-.414-3.27-1.193-4.672l29.33-24.295.571 1.869.467-.156 2.232 7.164c-8.565 4.464-14.38 13.393-14.38 23.672 0 14.69 11.94 26.682 26.683 26.682s26.683-11.94 26.683-26.682c.052-14.64-11.94-26.631-26.63-26.631zm-61.722 5.191l3.166 8.877-7.475 1.713a28.581 28.581 0 0 0-2.855-4.88l7.164-5.71zm-2.18 17.962c-.312-2.129-.831-4.205-1.558-6.126l5.243-1.194c-1.973 1.817-3.219 4.412-3.219 7.268l-.467.052zm-4.984 3.53c0 1.557-.156 3.114-.52 4.568l-17.597-.52c1.09-.882 1.765-2.128 1.92-3.581l16.145-1.558c0 .364.052.727.052 1.09zm-17.806-1.61c.052.104.052.208.104.26l-.52.052.416-.312zm-.208-2.388a3.41 3.41 0 0 0-.882-.623l2.336-.519-1.454 1.142zm-3.426.052a3.92 3.92 0 0 1 2.388.83l-3.01 2.389c-.364.26-.468.727-.312 1.142.156.363.519.623.882.623h.104l3.842-.364c-.312 1.921-1.921 3.375-3.894 3.375a3.999 3.999 0 0 1-3.997-3.998 3.999 3.999 0 0 1 3.997-3.997zm5.036 2.492c-.104-.363-.208-.675-.416-.986l4.672-3.686 10.383-2.388a21.174 21.174 0 0 1 1.505 5.45l-16.144 1.61zm6.644-6.54l5.71-4.517a14.362 14.362 0 0 1 1.714 2.855l-7.424 1.661zm20.661-2.96l2.336 6.593-6.593.623c.104-3.063 1.765-5.762 4.257-7.216zm5.036 4.309l-1.921-5.399c.415-.052.83-.104 1.298-.104 1.972 0 3.737.675 5.19 1.765l-4.567 3.738zm-37.377 28.084c-11.836 0-21.44-9.604-21.44-21.44 0-11.835 9.604-21.439 21.44-21.439 6.437 0 12.2 2.855 16.145 7.371l-8.929 7.06-7.683 1.765h-.052c-2.647.26-4.776 2.492-4.776 5.244a5.266 5.266 0 0 0 4.88 5.243c.052 0 .104.052.156.052l20.868.57c-2.544 8.981-10.85 15.574-20.609 15.574zm26.216-16.716c.26-1.557.467-3.114.467-4.723 0-.52-.052-1.09-.104-1.61l.415-.052a10.098 10.098 0 0 0 4.568 6.541l-5.346-.156zm10.486.312a8.58 8.58 0 0 1-8.41-6.8l6.8-.675c.052.052.052.052.052.104.364.467.935.726 1.506.726.104 0 .207-.052.363-.052l4.517 5.192a8.456 8.456 0 0 1-4.828 1.505zm8.617-8.617c0 2.232-.882 4.256-2.284 5.814l-4.309-4.932 5.659-4.672c.623 1.142.934 2.44.934 3.79zm-2.388-7.683a9.721 9.721 0 0 0-6.23-2.232c-.57 0-1.193.051-1.764.155l-3.115-8.72 41.425-15.47.26.882-30.576 25.385zm47.395 32.704c-11.835 0-21.44-9.604-21.44-21.44 0-7.942 4.361-14.846 10.747-18.584l3.79 12.2c-.157.622-.053 1.35.414 1.868l.26.312 1.92 6.125 2.544-.778.104.155c.416.52 1.038.779 1.61.779.467 0 .934-.156 1.35-.467a2.133 2.133 0 0 0 .259-3.011l-4.828-5.814c-.052-.104-.156-.156-.26-.26l-3.945-12.666c2.336-.83 4.776-1.35 7.423-1.35 11.836 0 21.44 9.604 21.44 21.44.052 11.887-9.552 21.491-21.388 21.491zM863.366 179.762c-4.38 0-8.551.834-12.375 2.294l-.417-1.043c3.963-1.53 8.343-2.364 12.862-2.364 2.294 0 4.588.209 6.883.626l2.155-1.182a39.027 39.027 0 0 0-8.969-1.043c-4.727 0-9.316.904-13.487 2.503l-2.086-4.797.348-.139-.14-.348h29.826a1.07 1.07 0 0 0 1.043-1.042c0-.418-.278-.765-.626-.974h11.332a.772.772 0 0 0 .765-.765.772.772 0 0 0-.765-.764h-2.642v-7.856h2.642a.772.772 0 0 0 .765-.765.772.772 0 0 0-.765-.765h-16.06a7.94 7.94 0 0 0-5.7 2.434l-7.995 8.481h-4.589l-4.658-10.428c-.208-.417-.625-.556-1.043-.417-.417.208-.556.625-.417 1.043l4.38 9.802h-6.187l-4.797-14.46-.696.208-2.71-9.107 9.246-.835c.486-.069.903-.347 1.112-.834.208-.486.07-.973-.278-1.39l-10.011-10.568a1.415 1.415 0 0 0-1.043-.417l-19.536 1.043a1.372 1.372 0 0 0-1.251 1.39c.07.696.625 1.252 1.39 1.252l18.91-1.043 7.717 8.204-7.091.695-.348-1.182-2.99.904 3.894 12.931-.765.278 1.182 3.546h-59.72l-.903-3.268-.487.14-1.668-5.632c-.348-1.251-1.182-2.225-2.225-2.85l1.251-.14a4.809 4.809 0 0 0 3.129-1.39l2.99-2.78c4.31.069 6.673.764 6.951.486.348-.348-.486-2.99-2.224-3.268-1.738-.278-18.007-.07-22.317-.973-4.31-.834-4.867-1.182-5.91 1.46-.138.487-.625 1.32.557 1.877 0 0 2.572 1.251 5.283 2.294l1.113 1.182c.973 1.043 2.433 1.669 3.893 1.669h.417l.487-.07v1.043h1.947c1.25 0 2.363.834 2.71 2.016l1.67 5.631-.487.14.695 2.363h-8.551v3.129h9.455l2.92 10.22h-12.375v3.128h10.567l-8.204 7.995c-6.813-6.396-15.92-10.29-26-10.29a38.024 38.024 0 0 0-25.655 9.942c-6.952 6.396-11.332 15.087-12.166 24.403l1.808-1.808c2.641-17.798 17.797-31.007 36.012-31.007a36.036 36.036 0 0 1 24.82 9.872l-.765.765c-6.327-5.91-14.739-9.524-24.055-9.524-19.466 0-35.317 15.85-35.317 35.317 0 19.466 15.85 35.317 35.317 35.317 14.878 0 27.6-9.246 32.815-22.247l14.738 2.642c.14 0 .278.07.418.07l.347.069c.556.07 1.043.139 1.6.139 2.154 0 4.101-.556 5.839-1.599l4.38 5.77-2.99 2.573c-.903.764-.973 2.085-.208 2.99.417.486.973.694 1.599.694.487 0 .973-.139 1.39-.486l7.717-6.674c.904-.765.974-2.086.209-2.99-.765-.904-2.086-.973-2.99-.208l-2.78 2.363-4.241-5.631c2.224-2.086 3.545-5.006 3.545-8.273 0-2.364-.764-4.589-2.016-6.466l32.05-33.44c.07.14.139.209.209.348.208.208.417.278.695.278.278 0 .556-.14.764-.348.974-1.112 3.477-3.545 6.049-4.797l.348 1.043.625-.209 2.225 5.076c-12.514 6.187-21.135 19.118-21.135 34.065 0 1.878.14 3.824.417 5.701l1.321-1.946a33.97 33.97 0 0 1-.208-3.755c0-14.252 8.273-26.627 20.23-32.606l.418 1.043c-11.61 5.77-19.536 17.729-19.536 31.563 0 19.467 15.851 35.318 35.317 35.318 19.467 0 35.318-15.851 35.318-35.318-.14-19.396-15.99-35.247-35.457-35.247zm22.039-8.969h-5.284v-7.856h5.284v7.856zm-16.407-5.91a6.266 6.266 0 0 1 4.519-1.946h5.005v7.856h-15.156l5.632-5.91zm-99.834-14.251c-1.113.07-2.225-.278-3.06-.973 1.46.486 2.782.764 3.407.625 2.155-.556 4.45-2.99 10.011-3.198h.348l-2.155 1.947c-.695.626-1.6 1.043-2.503 1.112l-5.353.487H769.164zm11.262 15.364h59.859l.487 1.53-8.413 8.76h-49.082l-2.85-10.29zm48.944 13.418l-29.269 30.52c-1.738-1.112-3.824-1.738-6.048-1.738h-1.6l-8.203-28.782h45.12zm-37.473 38.446l-6.882-.626c.695-2.642 2.572-4.866 5.005-6.048l1.877 6.674zm-12.583-1.113c0-.556.07-1.042.07-1.599 0-1.668-.14-3.267-.348-4.866h1.112c.209 1.599.348 3.198.348 4.866h1.599c0-1.668-.14-3.267-.348-4.866h5.631c-2.294 1.599-3.962 3.963-4.588 6.813l-3.476-.348zm-35.178-6.535c.764 0 1.53.209 2.224.557l-3.267 3.267c-.417.417-.556 1.043-.348 1.669.209.556.695.973 1.321 1.042l4.589.418c-.765 1.738-2.503 2.92-4.45 2.92-.278 0-.626-.07-.904-.07h-.139c-2.224-.487-3.893-2.433-3.893-4.797a4.869 4.869 0 0 1 4.867-5.006zm22.872-15.364a30.42 30.42 0 0 1 6.883 13.279h-20.37l13.487-13.279zm12.862 13.279h-1.112c-1.252-6.327-4.241-11.958-8.413-16.616l.765-.765c4.38 4.867 7.44 10.776 8.76 17.38zm-7.578-18.493l9.038-8.899 7.787 27.392h-7.648a37.87 37.87 0 0 0-9.177-18.493zm-23.776 23.36c.139.277.278.625.347.973l-1.251-.14.904-.834zm2.224 4.31l23.638 2.155a28.26 28.26 0 0 1-1.46 5.91l-24.75-4.52c1.182-.903 2.086-2.085 2.572-3.545zm.278-3.129c-.139-.973-.486-1.877-.973-2.711l1.251-1.252h22.943c.278 1.6.417 3.198.417 4.867 0 .417-.07.765-.07 1.182l-23.568-2.086zm43.521 1.53l-1.53-5.354c.348-.07.626-.07.974-.07 1.669 0 3.198.488 4.519 1.252l-3.963 4.172zm-50.403 30.033c-16.894 0-30.59-13.696-30.59-30.59 0-16.893 13.696-30.59 30.59-30.59 7.995 0 15.225 3.06 20.648 8.135l-15.782 15.434h-4.866a7.002 7.002 0 0 0-7.022 7.021c0 3.338 2.364 6.118 5.492 6.814H742.815l29.408 5.353c-4.797 10.845-15.573 18.423-28.087 18.423zm34.9-25.862l3.545.348c.14 2.92 1.321 5.561 3.268 7.508l-8.204-1.46c.626-2.086 1.113-4.24 1.39-6.396zm15.017 9.177c-.626 0-1.182-.07-1.738-.209h-.209c-3.963-.834-7.022-4.24-7.37-8.412l8.83.834 5.006 6.605c-1.39.695-2.92 1.182-4.52 1.182zm9.316-9.386a9.355 9.355 0 0 1-2.712 6.605l-4.24-5.631 5.561-5.84c.904 1.39 1.39 3.059 1.39 4.866zm37.68-45.606l1.391-1.46.209.556c-.557.278-1.113.556-1.6.904zm22.317 71.677c-16.894 0-30.59-13.696-30.59-30.59 0-11.888 6.814-22.177 16.755-27.252l12.167 27.948c.278.695.973 1.112 1.668 1.112.278 0 .487-.07.765-.139.904-.417 1.39-1.46.973-2.433l-12.236-27.948c3.268-1.182 6.814-1.877 10.498-1.877 16.894 0 30.59 13.696 30.59 30.59 0 16.893-13.765 30.59-30.59 30.59z"/>
        </g>
        <text fill="#FFF" font-family="AvenirNext-DemiBold, Avenir Next" font-size="32" font-weight="500" letter-spacing="-.6">
            <tspan x="833.5" y="91">Vélo des villes ou vélo des champs, il en existe pour tous les goûts</tspan>
        </text>
    </g>
</svg>
