<svg xmlns="http://www.w3.org/2000/svg" width="64" height="40" viewBox="0 0 64 40">
    <g fill="none" fill-rule="evenodd">
        <rect width="64" height="40" fill="#FFF" rx="7"/>
        <path fill="#1C3076" d="M0 7h64a7 7 0 0 0-7-7H7a7 7 0 0 0-7 7z"/>
        <path fill="#F9B300" d="M7 40h50a7 7 0 0 0 7-7H0a7 7 0 0 0 7 7z"/>
        <path fill="#1C3076" d="M31.53 12.283l-3.31 15.474h-4.003l3.31-15.474h4.003zm16.843 9.992l2.107-5.811 1.213 5.81h-3.32zm4.468 5.482h3.702L53.31 12.283h-3.415c-.77 0-1.418.446-1.705 1.134l-6.007 14.34h4.204l.835-2.31h5.135l.485 2.31zm-10.45-5.052c.017-4.084-5.646-4.31-5.608-6.135.012-.554.54-1.145 1.697-1.296.574-.074 2.155-.133 3.948.693l.702-3.283c-.964-.348-2.203-.684-3.745-.684-3.957 0-6.742 2.102-6.764 5.115-.025 2.228 1.989 3.47 3.503 4.212 1.561.758 2.085 1.245 2.077 1.922-.01 1.038-1.245 1.498-2.394 1.515-2.014.032-3.181-.544-4.112-.978l-.726 3.393c.937.429 2.663.802 4.45.821 4.208 0 6.959-2.078 6.971-5.295zM25.81 12.283l-6.487 15.474h-4.232L11.9 15.407c-.193-.759-.362-1.038-.95-1.359-.963-.523-2.553-1.012-3.95-1.316l.094-.45h6.813c.867 0 1.648.578 1.846 1.577l1.687 8.956 4.164-10.532h4.206z"/>
    </g>
</svg>
