<svg xmlns="http://www.w3.org/2000/svg" width="64" height="40" viewBox="0 0 64 40">
    <g fill="none" fill-rule="evenodd">
        <rect width="64" height="40" fill="#000" rx="7"/>
        <g transform="translate(11 3)">
            <circle cx="13.067" cy="13.067" r="13.067" fill="#EB221B"/>
            <circle cx="28.933" cy="13.067" r="13.067" fill="#02A1DF"/>
            <path fill="#7673C0" d="M21 2.683a13.046 13.046 0 0 1 5.133 10.384c0 4.233-2.012 7.995-5.133 10.383a13.046 13.046 0 0 1-5.133-10.383c0-4.233 2.012-7.996 5.133-10.384z"/>
        </g>
        <path fill="#FFF" d="M44.28 32.255c.199 0 .482.038.7.123l-.303.925a1.6 1.6 0 0 0-.614-.113c-.641 0-.963.415-.963 1.161v2.53h-.98v-4.513h.971v.548c.255-.396.623-.66 1.19-.66zm-3.397 1.01h-1.605v2.04c0 .453.16.755.652.755.254 0 .575-.085.868-.255l.283.84c-.311.217-.803.35-1.227.35-1.161 0-1.568-.624-1.568-1.672v-2.057h-.915v-.898h.915V31h.992v1.368h1.605v.898zm-4.718.255a2.905 2.905 0 0 0-1.407-.387c-.537 0-.859.198-.859.53 0 .301.34.386.765.443l.463.066c.982.142 1.576.557 1.576 1.35 0 .86-.755 1.472-2.058 1.472-.736 0-1.416-.188-1.954-.585l.463-.765c.33.255.82.473 1.5.473.671 0 1.03-.199 1.03-.548 0-.255-.255-.396-.793-.472l-.463-.066c-1.01-.142-1.558-.595-1.558-1.33 0-.898.737-1.446 1.88-1.446.717 0 1.368.161 1.84.472l-.425.793zm-7.495.709c.104-.652.5-1.096 1.199-1.096.632 0 1.038.397 1.142 1.096H28.67zm3.36.396c-.01-1.407-.878-2.37-2.143-2.37-1.321 0-2.246.963-2.246 2.37 0 1.435.963 2.37 2.313 2.37.68 0 1.302-.17 1.85-.633l-.481-.727a2.15 2.15 0 0 1-1.313.472c-.632 0-1.208-.293-1.35-1.104h3.352c.009-.123.018-.246.018-.378zm15.667-1.447c-.202 0-.389.036-.562.107-.172.07-.321.169-.447.296a1.37 1.37 0 0 0-.297.457 1.544 1.544 0 0 0-.108.587c0 .214.036.409.108.587a1.329 1.329 0 0 0 .744.754c.173.07.36.106.562.106.2 0 .388-.036.56-.106a1.35 1.35 0 0 0 .75-.754 1.55 1.55 0 0 0 .108-.587c0-.214-.037-.41-.109-.587a1.336 1.336 0 0 0-.75-.753 1.46 1.46 0 0 0-.56-.107zm0-.928c.348 0 .67.06.968.181.296.121.553.288.77.5.217.212.387.462.509.752.122.289.184.603.184.942 0 .34-.062.653-.184.942a2.288 2.288 0 0 1-1.28 1.251c-.296.121-.62.182-.967.182-.35 0-.672-.061-.969-.182a2.34 2.34 0 0 1-.768-.499 2.326 2.326 0 0 1-.507-.752 2.398 2.398 0 0 1-.183-.942c0-.34.061-.653.183-.942.123-.29.292-.54.507-.752.215-.212.471-.379.768-.5.297-.12.62-.181.969-.181zm-24.662 2.375c0-.793.519-1.444 1.369-1.444.811 0 1.36.623 1.36 1.444s-.549 1.444-1.36 1.444c-.85 0-1.37-.651-1.37-1.444zm3.653 0v-2.257h-.982v.548c-.311-.406-.783-.66-1.425-.66-1.265 0-2.256.99-2.256 2.37 0 1.378.99 2.368 2.256 2.368.642 0 1.114-.254 1.425-.66v.547h.982v-2.256zm-5.532 2.256V34.05c0-1.067-.68-1.784-1.775-1.794-.576-.01-1.17.17-1.586.803-.311-.5-.802-.803-1.492-.803-.48 0-.953.142-1.32.67v-.557H14v4.513h.992V34.38c0-.783.434-1.198 1.104-1.198.651 0 .982.424.982 1.19v2.51h.991V34.38c0-.783.453-1.198 1.105-1.198.67 0 .991.424.991 1.19v2.51h.991z"/>
    </g>
</svg>
