<svg xmlns="http://www.w3.org/2000/svg" width="64" height="40" viewBox="0 0 64 40">
    <g fill="none" fill-rule="evenodd">
        <rect width="64" height="40" fill="#000" rx="7"/>
        <path fill="#FFF" d="M51.605 34.796a1.316 1.316 0 0 1 1.316-1.422 1.43 1.43 0 0 1-.018 2.83 1.317 1.317 0 0 1-1.316-1.417l.018.009zm3.4 0V31h-.842v2.194a1.661 1.661 0 0 0-1.36-.614 2.205 2.205 0 0 0 0 4.41 1.664 1.664 0 0 0 1.36-.615v.51h.842v-2.09zm-11.878 0a1.316 1.316 0 0 1 1.316-1.422 1.43 1.43 0 0 1 0 2.848 1.317 1.317 0 0 1-1.316-1.422v-.004zm3.4 0v-2.102h-.842v.509a1.661 1.661 0 0 0-1.36-.614 2.205 2.205 0 0 0 0 4.41 1.664 1.664 0 0 0 1.36-.615v.51h.842v-2.098zm3.235-2.203a1.316 1.316 0 0 0-1.141.614v-.513h-.834v4.2h.842v-2.37c0-.694.333-1.141.93-1.141.196-.003.39.033.571.105l.281-.79a1.95 1.95 0 0 0-.65-.114v.009zm-32.425 2.194a1.316 1.316 0 0 1 1.317-1.422 1.43 1.43 0 0 1 0 2.848 1.317 1.317 0 0 1-1.317-1.422v-.004zm3.401 0v-2.093h-.842v.509a1.661 1.661 0 0 0-1.36-.614 2.205 2.205 0 0 0 0 4.41 1.664 1.664 0 0 0 1.36-.615v.51h.842v-2.107zm11.37-1.417a1.07 1.07 0 0 1 1.106 1.062h-2.251a1.123 1.123 0 0 1 1.158-1.062h-.013zm0-.781c-1.229 0-2.076.877-2.076 2.194a2.067 2.067 0 0 0 2.137 2.194 2.555 2.555 0 0 0 1.72-.588l-.438-.623a2.004 2.004 0 0 1-1.22.438 1.233 1.233 0 0 1-1.268-1.075H34.1v-.35c0-1.317-.798-2.195-1.979-2.195l-.013.005zm5.906 2.194a2.093 2.093 0 0 0 2.195 2.194 2.197 2.197 0 0 0 1.51-.5l-.44-.659c-.315.24-.7.373-1.097.378a1.43 1.43 0 0 1 0-2.848c.397.004.782.137 1.097.377l.44-.658a2.193 2.193 0 0 0-1.51-.5 2.093 2.093 0 0 0-2.195 2.194v.022zM25.29 33.027a3.141 3.141 0 0 0-1.712-.438c-1.061 0-1.71.5-1.71 1.316 0 .685.473 1.097 1.412 1.229l.439.061c.5.07.772.246.772.483 0 .324-.368.535-.992.535a2.196 2.196 0 0 1-1.395-.439l-.439.659c.535.364 1.17.554 1.817.544 1.211 0 1.882-.562 1.882-1.36 0-.8-.513-1.102-1.421-1.234l-.44-.061c-.394-.053-.745-.176-.745-.439s.333-.518.834-.518c.462.005.915.13 1.316.36l.382-.698zm11.782-.438a1.316 1.316 0 0 0-1.14.614v-.51h-.835v4.2h.843v-2.37c0-.693.333-1.14.93-1.14.195-.003.39.033.57.105l.281-.794a1.95 1.95 0 0 0-.649-.114v.009zm-7.793.105H27.75V31.42h-.856v1.273h-.878v.763h.878v1.988c0 .974.342 1.554 1.422 1.554.403 0 .798-.112 1.14-.325l-.263-.746a1.687 1.687 0 0 1-.807.237c-.439 0-.64-.281-.64-.702v-2.014h1.526l.005-.755zm-13.674 4.19v-2.632a1.532 1.532 0 0 0-1.615-1.66 1.627 1.627 0 0 0-1.474.747 1.545 1.545 0 0 0-1.387-.746c-.5-.03-.978.203-1.264.614v-.513H9v4.2h.851V34.48a1.01 1.01 0 0 1 1.062-1.115c.606 0 .948.395.948 1.106v2.418h.851v-2.41a1.013 1.013 0 0 1 1.062-1.114c.623 0 .957.395.957 1.106v2.418l.873-.004z"/>
        <g transform="translate(11 3)">
            <circle cx="13.067" cy="13.067" r="13.067" fill="#EB001B"/>
            <circle cx="28.933" cy="13.067" r="13.067" fill="#F79E1B"/>
            <path fill="#FF5F00" d="M21 2.683a13.046 13.046 0 0 1 5.133 10.384c0 4.233-2.012 7.995-5.133 10.383a13.046 13.046 0 0 1-5.133-10.383c0-4.233 2.012-7.996 5.133-10.384z"/>
        </g>
    </g>
</svg>
